# xmcd CD database file generated by Grip 2.96
# 
# Track frame offsets:
#       150
#       6427
#       13877
#       27594
#       46605
#       57489
#       63883
#       76770
#       85226
#       95024
#       114412
#       123793
#       134566
#       145106
#       151260
#       173316
#       179220
#       189185
#       198126
#       216712
# 
# Disc length: 3320 seconds
# 
# Revision: 0
# Processed by: cddbd v1.4PL0 Copyright (c) Steve Scherf et al.
# Submitted via: Grip 2.96
# 
DISCID=0f0cf614
DTITLE=Country Teasers - Science Hat Artistic Cube Moral Nosebleed Empire
DYEAR=1900
DGENRE=
TTITLE0=Compressor
TTITLE1=Getaway
TTITLE2=Some Hole
TTITLE3=I'm a New Person, Ma'am
TTITLE4=$4.99
TTITLE5=Mollusc in Country
TTITLE6=Happy Feet
TTITLE7=No Limits
TTITLE8=Hat on the Bed
TTITLE9=Secrets in Welsh
TTITLE10=Adam Wakes Up
TTITLE11=Loose Tongues Get Into Tight Places
TTITLE12=After One Thing
TTITLE13=Treble Life #2
TTITLE14=The Last Bridge of Spencer Smith
TTITLE15=Can't Sing
TTITLE16=We Had to Tear this Motherfucker Up
TTITLE17=Only Whittlin'
TTITLE18=Postman Pak and His Lazy Black and White Cunts
TTITLE19=Tough Luck on Jock
EXTD=
EXTT0=
EXTT1=
EXTT2=
EXTT3=
EXTT4=
EXTT5=
EXTT6=
EXTT7=
EXTT8=
EXTT9=
EXTT10=
EXTT11=
EXTT12=
EXTT13=
EXTT14=
EXTT15=
EXTT16=
EXTT17=
EXTT18=
EXTT19=
PLAYORDER=
